<mxfile host="app.diagrams.net" modified="2023-10-07T15:10:06.893Z" agent="Mozilla/5.0 (Windows NT 10.0; Win64; x64) AppleWebKit/537.36 (KHTML, like Gecko) Chrome/117.0.0.0 Safari/537.36 Edg/117.0.2045.47" etag="z9iznpbUHdMrTvwr9tiH" version="22.0.0" type="device" pages="2">
  <diagram name="Implantação" id="o8wWckxrtK2z17_uWel1">
    <mxGraphModel dx="1386" dy="1893" grid="1" gridSize="10" guides="1" tooltips="1" connect="1" arrows="1" fold="1" page="1" pageScale="1" pageWidth="850" pageHeight="1100" math="0" shadow="0">
      <root>
        <mxCell id="0" />
        <mxCell id="1" parent="0" />
        <mxCell id="MzCGPPgZnI-AeKEfYAHl-80" style="edgeStyle=orthogonalEdgeStyle;rounded=0;orthogonalLoop=1;jettySize=auto;html=1;exitX=0;exitY=0;exitDx=260;exitDy=180;exitPerimeter=0;endArrow=none;endFill=0;" parent="1" source="MzCGPPgZnI-AeKEfYAHl-82" edge="1">
          <mxGeometry relative="1" as="geometry">
            <mxPoint x="365" y="370" as="targetPoint" />
          </mxGeometry>
        </mxCell>
        <mxCell id="MzCGPPgZnI-AeKEfYAHl-81" value="&amp;lt;&amp;lt;HTTP&amp;gt;&amp;gt;" style="edgeLabel;html=1;align=center;verticalAlign=middle;resizable=0;points=[];" parent="MzCGPPgZnI-AeKEfYAHl-80" connectable="0" vertex="1">
          <mxGeometry x="-0.0983" y="4" relative="1" as="geometry">
            <mxPoint as="offset" />
          </mxGeometry>
        </mxCell>
        <mxCell id="MzCGPPgZnI-AeKEfYAHl-82" value="Aluno:Browser" style="verticalAlign=top;align=left;spacingTop=8;spacingLeft=2;spacingRight=12;shape=cube;size=10;direction=south;fontStyle=4;html=1;whiteSpace=wrap;" parent="1" vertex="1">
          <mxGeometry x="40" y="-147.5" width="430" height="305" as="geometry" />
        </mxCell>
        <mxCell id="MzCGPPgZnI-AeKEfYAHl-83" style="edgeStyle=orthogonalEdgeStyle;rounded=0;orthogonalLoop=1;jettySize=auto;html=1;exitX=0;exitY=0;exitDx=225;exitDy=0;exitPerimeter=0;entryX=0;entryY=0;entryDx=160;entryDy=360;entryPerimeter=0;endArrow=none;endFill=0;" parent="1" source="MzCGPPgZnI-AeKEfYAHl-85" target="MzCGPPgZnI-AeKEfYAHl-86" edge="1">
          <mxGeometry relative="1" as="geometry" />
        </mxCell>
        <mxCell id="MzCGPPgZnI-AeKEfYAHl-84" value="&amp;lt;&amp;lt;JBDC&amp;gt;&amp;gt;" style="edgeLabel;html=1;align=center;verticalAlign=middle;resizable=0;points=[];" parent="MzCGPPgZnI-AeKEfYAHl-83" connectable="0" vertex="1">
          <mxGeometry x="-0.0698" y="-1" relative="1" as="geometry">
            <mxPoint as="offset" />
          </mxGeometry>
        </mxCell>
        <mxCell id="MzCGPPgZnI-AeKEfYAHl-85" value="Servidor de Aplicação" style="verticalAlign=top;align=left;spacingTop=8;spacingLeft=2;spacingRight=12;shape=cube;size=10;direction=south;fontStyle=4;html=1;whiteSpace=wrap;" parent="1" vertex="1">
          <mxGeometry x="60" y="370" width="610" height="460" as="geometry" />
        </mxCell>
        <mxCell id="MzCGPPgZnI-AeKEfYAHl-86" value="Servidor de Banco de Dados&lt;br&gt;" style="verticalAlign=top;align=left;spacingTop=8;spacingLeft=2;spacingRight=12;shape=cube;size=10;direction=south;fontStyle=4;html=1;whiteSpace=wrap;" parent="1" vertex="1">
          <mxGeometry x="890" y="440" width="390" height="370" as="geometry" />
        </mxCell>
        <mxCell id="MzCGPPgZnI-AeKEfYAHl-87" value="Resources" style="shape=module;align=left;spacingLeft=20;align=center;verticalAlign=top;whiteSpace=wrap;html=1;" parent="1" vertex="1">
          <mxGeometry x="100" y="440" width="100" height="50" as="geometry" />
        </mxCell>
        <mxCell id="MzCGPPgZnI-AeKEfYAHl-88" value="Models" style="shape=module;align=left;spacingLeft=20;align=center;verticalAlign=top;whiteSpace=wrap;html=1;" parent="1" vertex="1">
          <mxGeometry x="290" y="610" width="100" height="50" as="geometry" />
        </mxCell>
        <mxCell id="MzCGPPgZnI-AeKEfYAHl-89" value="Repositories" style="shape=module;align=left;spacingLeft=20;align=center;verticalAlign=top;whiteSpace=wrap;html=1;" parent="1" vertex="1">
          <mxGeometry x="290" y="720" width="100" height="50" as="geometry" />
        </mxCell>
        <mxCell id="MzCGPPgZnI-AeKEfYAHl-90" value="Services" style="shape=module;align=left;spacingLeft=20;align=center;verticalAlign=top;whiteSpace=wrap;html=1;" parent="1" vertex="1">
          <mxGeometry x="510" y="610" width="100" height="50" as="geometry" />
        </mxCell>
        <mxCell id="MzCGPPgZnI-AeKEfYAHl-91" value="SGBD" style="shape=module;align=left;spacingLeft=20;align=center;verticalAlign=top;whiteSpace=wrap;html=1;" parent="1" vertex="1">
          <mxGeometry x="1000" y="560" width="100" height="50" as="geometry" />
        </mxCell>
        <mxCell id="MzCGPPgZnI-AeKEfYAHl-92" value="Login/Cadastro" style="shape=module;align=left;spacingLeft=20;align=center;verticalAlign=top;whiteSpace=wrap;html=1;" parent="1" vertex="1">
          <mxGeometry x="240" y="-20" width="100" height="50" as="geometry" />
        </mxCell>
        <mxCell id="MzCGPPgZnI-AeKEfYAHl-93" value="Controllers" style="shape=module;align=left;spacingLeft=20;align=center;verticalAlign=top;whiteSpace=wrap;html=1;" parent="1" vertex="1">
          <mxGeometry x="360" y="440" width="100" height="50" as="geometry" />
        </mxCell>
        <mxCell id="MzCGPPgZnI-AeKEfYAHl-94" style="edgeStyle=orthogonalEdgeStyle;rounded=0;orthogonalLoop=1;jettySize=auto;html=1;endArrow=none;endFill=0;" parent="1" source="MzCGPPgZnI-AeKEfYAHl-96" target="MzCGPPgZnI-AeKEfYAHl-93" edge="1">
          <mxGeometry relative="1" as="geometry" />
        </mxCell>
        <mxCell id="MzCGPPgZnI-AeKEfYAHl-95" style="edgeStyle=orthogonalEdgeStyle;rounded=0;orthogonalLoop=1;jettySize=auto;html=1;exitX=1;exitY=0.5;exitDx=0;exitDy=0;exitPerimeter=0;entryX=1;entryY=0.5;entryDx=0;entryDy=0;endArrow=none;endFill=0;" parent="1" source="MzCGPPgZnI-AeKEfYAHl-96" target="MzCGPPgZnI-AeKEfYAHl-92" edge="1">
          <mxGeometry relative="1" as="geometry" />
        </mxCell>
        <mxCell id="MzCGPPgZnI-AeKEfYAHl-96" value="" style="shape=providedRequiredInterface;html=1;verticalLabelPosition=bottom;sketch=0;direction=north;" parent="1" vertex="1">
          <mxGeometry x="400" y="400" width="20" height="20" as="geometry" />
        </mxCell>
        <mxCell id="MzCGPPgZnI-AeKEfYAHl-97" style="edgeStyle=orthogonalEdgeStyle;rounded=0;orthogonalLoop=1;jettySize=auto;html=1;exitX=0;exitY=0.5;exitDx=0;exitDy=0;exitPerimeter=0;entryX=0.5;entryY=0;entryDx=0;entryDy=0;endArrow=none;endFill=0;" parent="1" source="MzCGPPgZnI-AeKEfYAHl-99" target="MzCGPPgZnI-AeKEfYAHl-88" edge="1">
          <mxGeometry relative="1" as="geometry" />
        </mxCell>
        <mxCell id="MzCGPPgZnI-AeKEfYAHl-98" style="edgeStyle=orthogonalEdgeStyle;rounded=0;orthogonalLoop=1;jettySize=auto;html=1;exitX=1;exitY=0.5;exitDx=0;exitDy=0;exitPerimeter=0;endArrow=none;endFill=0;" parent="1" source="MzCGPPgZnI-AeKEfYAHl-99" target="MzCGPPgZnI-AeKEfYAHl-93" edge="1">
          <mxGeometry relative="1" as="geometry" />
        </mxCell>
        <mxCell id="MzCGPPgZnI-AeKEfYAHl-99" value="" style="shape=providedRequiredInterface;html=1;verticalLabelPosition=bottom;sketch=0;direction=north;" parent="1" vertex="1">
          <mxGeometry x="330" y="560" width="20" height="20" as="geometry" />
        </mxCell>
        <mxCell id="MzCGPPgZnI-AeKEfYAHl-100" style="edgeStyle=orthogonalEdgeStyle;rounded=0;orthogonalLoop=1;jettySize=auto;html=1;exitX=0;exitY=0.5;exitDx=0;exitDy=0;exitPerimeter=0;endArrow=none;endFill=0;" parent="1" source="MzCGPPgZnI-AeKEfYAHl-102" target="MzCGPPgZnI-AeKEfYAHl-90" edge="1">
          <mxGeometry relative="1" as="geometry" />
        </mxCell>
        <mxCell id="MzCGPPgZnI-AeKEfYAHl-101" style="edgeStyle=orthogonalEdgeStyle;rounded=0;orthogonalLoop=1;jettySize=auto;html=1;exitX=1;exitY=0.5;exitDx=0;exitDy=0;exitPerimeter=0;entryX=1;entryY=0.5;entryDx=0;entryDy=0;endArrow=none;endFill=0;" parent="1" source="MzCGPPgZnI-AeKEfYAHl-102" target="MzCGPPgZnI-AeKEfYAHl-93" edge="1">
          <mxGeometry relative="1" as="geometry" />
        </mxCell>
        <mxCell id="MzCGPPgZnI-AeKEfYAHl-102" value="" style="shape=providedRequiredInterface;html=1;verticalLabelPosition=bottom;sketch=0;direction=north;" parent="1" vertex="1">
          <mxGeometry x="550" y="560" width="20" height="20" as="geometry" />
        </mxCell>
        <mxCell id="MzCGPPgZnI-AeKEfYAHl-103" style="edgeStyle=orthogonalEdgeStyle;rounded=0;orthogonalLoop=1;jettySize=auto;html=1;exitX=0;exitY=0.5;exitDx=0;exitDy=0;exitPerimeter=0;endArrow=none;endFill=0;" parent="1" source="MzCGPPgZnI-AeKEfYAHl-105" target="MzCGPPgZnI-AeKEfYAHl-89" edge="1">
          <mxGeometry relative="1" as="geometry" />
        </mxCell>
        <mxCell id="MzCGPPgZnI-AeKEfYAHl-104" style="edgeStyle=orthogonalEdgeStyle;rounded=0;orthogonalLoop=1;jettySize=auto;html=1;exitX=1;exitY=0.5;exitDx=0;exitDy=0;exitPerimeter=0;endArrow=none;endFill=0;" parent="1" source="MzCGPPgZnI-AeKEfYAHl-105" target="MzCGPPgZnI-AeKEfYAHl-88" edge="1">
          <mxGeometry relative="1" as="geometry" />
        </mxCell>
        <mxCell id="MzCGPPgZnI-AeKEfYAHl-105" value="" style="shape=providedRequiredInterface;html=1;verticalLabelPosition=bottom;sketch=0;direction=north;" parent="1" vertex="1">
          <mxGeometry x="330" y="680" width="20" height="20" as="geometry" />
        </mxCell>
        <mxCell id="MzCGPPgZnI-AeKEfYAHl-106" style="edgeStyle=orthogonalEdgeStyle;rounded=0;orthogonalLoop=1;jettySize=auto;html=1;exitX=0;exitY=0.5;exitDx=0;exitDy=0;exitPerimeter=0;entryX=0.5;entryY=1;entryDx=0;entryDy=0;endArrow=none;endFill=0;" parent="1" source="MzCGPPgZnI-AeKEfYAHl-108" target="MzCGPPgZnI-AeKEfYAHl-91" edge="1">
          <mxGeometry relative="1" as="geometry" />
        </mxCell>
        <mxCell id="MzCGPPgZnI-AeKEfYAHl-107" style="edgeStyle=orthogonalEdgeStyle;rounded=0;orthogonalLoop=1;jettySize=auto;html=1;exitX=1;exitY=0.5;exitDx=0;exitDy=0;exitPerimeter=0;entryX=1;entryY=0.5;entryDx=0;entryDy=0;endArrow=none;endFill=0;" parent="1" source="MzCGPPgZnI-AeKEfYAHl-108" target="MzCGPPgZnI-AeKEfYAHl-89" edge="1">
          <mxGeometry relative="1" as="geometry" />
        </mxCell>
        <mxCell id="MzCGPPgZnI-AeKEfYAHl-108" value="" style="shape=providedRequiredInterface;html=1;verticalLabelPosition=bottom;sketch=0;direction=south;" parent="1" vertex="1">
          <mxGeometry x="1040" y="630" width="20" height="20" as="geometry" />
        </mxCell>
        <mxCell id="MzCGPPgZnI-AeKEfYAHl-109" style="edgeStyle=orthogonalEdgeStyle;rounded=0;orthogonalLoop=1;jettySize=auto;html=1;exitX=0;exitY=0.5;exitDx=0;exitDy=0;exitPerimeter=0;entryX=0.5;entryY=1;entryDx=0;entryDy=0;endArrow=none;endFill=0;" parent="1" source="MzCGPPgZnI-AeKEfYAHl-111" target="MzCGPPgZnI-AeKEfYAHl-87" edge="1">
          <mxGeometry relative="1" as="geometry" />
        </mxCell>
        <mxCell id="MzCGPPgZnI-AeKEfYAHl-110" style="edgeStyle=orthogonalEdgeStyle;rounded=0;orthogonalLoop=1;jettySize=auto;html=1;exitX=1;exitY=0.5;exitDx=0;exitDy=0;exitPerimeter=0;entryX=0;entryY=0;entryDx=10;entryDy=0;entryPerimeter=0;endArrow=none;endFill=0;" parent="1" source="MzCGPPgZnI-AeKEfYAHl-111" target="MzCGPPgZnI-AeKEfYAHl-93" edge="1">
          <mxGeometry relative="1" as="geometry" />
        </mxCell>
        <mxCell id="MzCGPPgZnI-AeKEfYAHl-111" value="" style="shape=providedRequiredInterface;html=1;verticalLabelPosition=bottom;sketch=0;direction=south;" parent="1" vertex="1">
          <mxGeometry x="140" y="510" width="20" height="20" as="geometry" />
        </mxCell>
        <mxCell id="MzCGPPgZnI-AeKEfYAHl-112" style="edgeStyle=orthogonalEdgeStyle;rounded=0;orthogonalLoop=1;jettySize=auto;html=1;exitX=1;exitY=0.25;exitDx=0;exitDy=0;entryX=1;entryY=0.5;entryDx=0;entryDy=0;entryPerimeter=0;endArrow=none;endFill=0;" parent="1" source="MzCGPPgZnI-AeKEfYAHl-113" target="MzCGPPgZnI-AeKEfYAHl-96" edge="1">
          <mxGeometry relative="1" as="geometry" />
        </mxCell>
        <mxCell id="MzCGPPgZnI-AeKEfYAHl-113" value="Gerenciar moedas" style="shape=module;align=left;spacingLeft=20;align=center;verticalAlign=top;whiteSpace=wrap;html=1;" parent="1" vertex="1">
          <mxGeometry x="240" y="47.5" width="100" height="50" as="geometry" />
        </mxCell>
        <mxCell id="MzCGPPgZnI-AeKEfYAHl-114" style="edgeStyle=orthogonalEdgeStyle;rounded=0;orthogonalLoop=1;jettySize=auto;html=1;exitX=0;exitY=0;exitDx=305;exitDy=210;exitPerimeter=0;endArrow=none;endFill=0;" parent="1" source="MzCGPPgZnI-AeKEfYAHl-116" target="MzCGPPgZnI-AeKEfYAHl-85" edge="1">
          <mxGeometry relative="1" as="geometry" />
        </mxCell>
        <mxCell id="MzCGPPgZnI-AeKEfYAHl-115" value="&amp;lt;&amp;lt;HTTP&amp;gt;&amp;gt;" style="edgeLabel;html=1;align=center;verticalAlign=middle;resizable=0;points=[];" parent="MzCGPPgZnI-AeKEfYAHl-114" vertex="1" connectable="0">
          <mxGeometry x="-0.2875" y="3" relative="1" as="geometry">
            <mxPoint x="1" as="offset" />
          </mxGeometry>
        </mxCell>
        <mxCell id="MzCGPPgZnI-AeKEfYAHl-116" value="Professor:Browser" style="verticalAlign=top;align=left;spacingTop=8;spacingLeft=2;spacingRight=12;shape=cube;size=10;direction=south;fontStyle=4;html=1;whiteSpace=wrap;" parent="1" vertex="1">
          <mxGeometry x="520" y="-147.5" width="410" height="305" as="geometry" />
        </mxCell>
        <mxCell id="MzCGPPgZnI-AeKEfYAHl-117" style="edgeStyle=orthogonalEdgeStyle;rounded=0;orthogonalLoop=1;jettySize=auto;html=1;exitX=1;exitY=0.5;exitDx=0;exitDy=0;entryX=1;entryY=0.5;entryDx=0;entryDy=0;entryPerimeter=0;endArrow=none;endFill=0;" parent="1" source="MzCGPPgZnI-AeKEfYAHl-118" target="MzCGPPgZnI-AeKEfYAHl-96" edge="1">
          <mxGeometry relative="1" as="geometry" />
        </mxCell>
        <mxCell id="MzCGPPgZnI-AeKEfYAHl-118" value="Gerenciar moedas" style="shape=module;align=left;spacingLeft=20;align=center;verticalAlign=top;whiteSpace=wrap;html=1;" parent="1" vertex="1">
          <mxGeometry x="570" y="-40" width="100" height="50" as="geometry" />
        </mxCell>
        <mxCell id="MzCGPPgZnI-AeKEfYAHl-119" style="edgeStyle=orthogonalEdgeStyle;rounded=0;orthogonalLoop=1;jettySize=auto;html=1;exitX=1;exitY=0.5;exitDx=0;exitDy=0;entryX=1;entryY=0.5;entryDx=0;entryDy=0;entryPerimeter=0;endArrow=none;endFill=0;" parent="1" source="MzCGPPgZnI-AeKEfYAHl-120" target="MzCGPPgZnI-AeKEfYAHl-96" edge="1">
          <mxGeometry relative="1" as="geometry" />
        </mxCell>
        <mxCell id="MzCGPPgZnI-AeKEfYAHl-120" value="Login" style="shape=module;align=left;spacingLeft=20;align=center;verticalAlign=top;whiteSpace=wrap;html=1;" parent="1" vertex="1">
          <mxGeometry x="570" y="47.5" width="100" height="50" as="geometry" />
        </mxCell>
        <mxCell id="MzCGPPgZnI-AeKEfYAHl-121" style="edgeStyle=orthogonalEdgeStyle;rounded=0;orthogonalLoop=1;jettySize=auto;html=1;exitX=0;exitY=0;exitDx=315;exitDy=210;exitPerimeter=0;endArrow=none;endFill=0;" parent="1" source="MzCGPPgZnI-AeKEfYAHl-122" target="MzCGPPgZnI-AeKEfYAHl-85" edge="1">
          <mxGeometry relative="1" as="geometry" />
        </mxCell>
        <mxCell id="MzCGPPgZnI-AeKEfYAHl-122" value="Parceiros:Browser" style="verticalAlign=top;align=left;spacingTop=8;spacingLeft=2;spacingRight=12;shape=cube;size=10;direction=south;fontStyle=4;html=1;whiteSpace=wrap;" parent="1" vertex="1">
          <mxGeometry x="1010" y="-157.5" width="410" height="315" as="geometry" />
        </mxCell>
        <mxCell id="MzCGPPgZnI-AeKEfYAHl-123" style="edgeStyle=orthogonalEdgeStyle;rounded=0;orthogonalLoop=1;jettySize=auto;html=1;exitX=1;exitY=0.5;exitDx=0;exitDy=0;entryX=1;entryY=0.5;entryDx=0;entryDy=0;entryPerimeter=0;endArrow=none;endFill=0;" parent="1" source="MzCGPPgZnI-AeKEfYAHl-124" target="MzCGPPgZnI-AeKEfYAHl-96" edge="1">
          <mxGeometry relative="1" as="geometry" />
        </mxCell>
        <mxCell id="MzCGPPgZnI-AeKEfYAHl-124" value="Login" style="shape=module;align=left;spacingLeft=20;align=center;verticalAlign=top;whiteSpace=wrap;html=1;" parent="1" vertex="1">
          <mxGeometry x="1080" y="-40" width="100" height="50" as="geometry" />
        </mxCell>
        <mxCell id="MzCGPPgZnI-AeKEfYAHl-125" style="edgeStyle=orthogonalEdgeStyle;rounded=0;orthogonalLoop=1;jettySize=auto;html=1;exitX=1;exitY=0.5;exitDx=0;exitDy=0;entryX=1;entryY=0.5;entryDx=0;entryDy=0;entryPerimeter=0;endArrow=none;endFill=0;" parent="1" source="MzCGPPgZnI-AeKEfYAHl-126" target="MzCGPPgZnI-AeKEfYAHl-96" edge="1">
          <mxGeometry relative="1" as="geometry" />
        </mxCell>
        <mxCell id="MzCGPPgZnI-AeKEfYAHl-126" value="Gerenciar Vantagens" style="shape=module;align=left;spacingLeft=20;align=center;verticalAlign=top;whiteSpace=wrap;html=1;" parent="1" vertex="1">
          <mxGeometry x="1080" y="47.5" width="100" height="50" as="geometry" />
        </mxCell>
      </root>
    </mxGraphModel>
  </diagram>
  <diagram id="tXcnSeKGkUPCJs9sfDuA" name="Caso de uso">
    <mxGraphModel dx="1386" dy="793" grid="1" gridSize="10" guides="1" tooltips="1" connect="1" arrows="1" fold="1" page="1" pageScale="1" pageWidth="827" pageHeight="1169" math="0" shadow="0">
      <root>
        <mxCell id="0" />
        <mxCell id="1" parent="0" />
        <mxCell id="AlX_lAvBe-gPCF9OCpIl-7" value="Caso de uso" style="shape=umlFrame;whiteSpace=wrap;html=1;pointerEvents=0;recursiveResize=0;container=1;collapsible=0;width=160;" parent="1" vertex="1">
          <mxGeometry y="80" width="827" height="760" as="geometry" />
        </mxCell>
        <mxCell id="AlX_lAvBe-gPCF9OCpIl-8" value="Autenticar no sistema" style="ellipse;whiteSpace=wrap;html=1;" parent="AlX_lAvBe-gPCF9OCpIl-7" vertex="1">
          <mxGeometry x="300" y="275" width="140" height="70" as="geometry" />
        </mxCell>
        <mxCell id="AlX_lAvBe-gPCF9OCpIl-29" style="rounded=0;orthogonalLoop=1;jettySize=auto;html=1;endArrow=none;endFill=0;" parent="AlX_lAvBe-gPCF9OCpIl-7" source="AlX_lAvBe-gPCF9OCpIl-4" target="AlX_lAvBe-gPCF9OCpIl-13" edge="1">
          <mxGeometry relative="1" as="geometry" />
        </mxCell>
        <mxCell id="AlX_lAvBe-gPCF9OCpIl-30" style="rounded=0;orthogonalLoop=1;jettySize=auto;html=1;endArrow=none;endFill=0;" parent="AlX_lAvBe-gPCF9OCpIl-7" source="AlX_lAvBe-gPCF9OCpIl-4" target="AlX_lAvBe-gPCF9OCpIl-8" edge="1">
          <mxGeometry relative="1" as="geometry" />
        </mxCell>
        <mxCell id="AlX_lAvBe-gPCF9OCpIl-40" style="rounded=0;orthogonalLoop=1;jettySize=auto;html=1;endArrow=none;endFill=0;" parent="AlX_lAvBe-gPCF9OCpIl-7" source="AlX_lAvBe-gPCF9OCpIl-4" target="AlX_lAvBe-gPCF9OCpIl-39" edge="1">
          <mxGeometry relative="1" as="geometry" />
        </mxCell>
        <mxCell id="AlX_lAvBe-gPCF9OCpIl-4" value="Empresa parceira" style="shape=umlActor;verticalLabelPosition=bottom;verticalAlign=top;html=1;outlineConnect=0;" parent="AlX_lAvBe-gPCF9OCpIl-7" vertex="1">
          <mxGeometry x="50" y="165" width="30" height="60" as="geometry" />
        </mxCell>
        <mxCell id="AlX_lAvBe-gPCF9OCpIl-11" style="rounded=0;orthogonalLoop=1;jettySize=auto;html=1;endArrow=none;endFill=0;entryX=0;entryY=0.5;entryDx=0;entryDy=0;" parent="AlX_lAvBe-gPCF9OCpIl-7" source="AlX_lAvBe-gPCF9OCpIl-2" target="AlX_lAvBe-gPCF9OCpIl-8" edge="1">
          <mxGeometry relative="1" as="geometry" />
        </mxCell>
        <mxCell id="AlX_lAvBe-gPCF9OCpIl-14" style="rounded=0;orthogonalLoop=1;jettySize=auto;html=1;endArrow=none;endFill=0;" parent="AlX_lAvBe-gPCF9OCpIl-7" source="AlX_lAvBe-gPCF9OCpIl-2" target="AlX_lAvBe-gPCF9OCpIl-13" edge="1">
          <mxGeometry relative="1" as="geometry" />
        </mxCell>
        <mxCell id="AlX_lAvBe-gPCF9OCpIl-24" style="rounded=0;orthogonalLoop=1;jettySize=auto;html=1;entryX=0;entryY=0.5;entryDx=0;entryDy=0;endArrow=none;endFill=0;" parent="AlX_lAvBe-gPCF9OCpIl-7" source="AlX_lAvBe-gPCF9OCpIl-2" target="AlX_lAvBe-gPCF9OCpIl-23" edge="1">
          <mxGeometry relative="1" as="geometry" />
        </mxCell>
        <mxCell id="AlX_lAvBe-gPCF9OCpIl-27" style="rounded=0;orthogonalLoop=1;jettySize=auto;html=1;endArrow=none;endFill=0;" parent="AlX_lAvBe-gPCF9OCpIl-7" source="AlX_lAvBe-gPCF9OCpIl-2" target="AlX_lAvBe-gPCF9OCpIl-26" edge="1">
          <mxGeometry relative="1" as="geometry" />
        </mxCell>
        <mxCell id="AlX_lAvBe-gPCF9OCpIl-2" value="Aluno" style="shape=umlActor;verticalLabelPosition=bottom;verticalAlign=top;html=1;outlineConnect=0;" parent="AlX_lAvBe-gPCF9OCpIl-7" vertex="1">
          <mxGeometry x="40" y="315" width="30" height="60" as="geometry" />
        </mxCell>
        <mxCell id="AlX_lAvBe-gPCF9OCpIl-12" style="rounded=0;orthogonalLoop=1;jettySize=auto;html=1;endArrow=none;endFill=0;entryX=1;entryY=0.5;entryDx=0;entryDy=0;" parent="AlX_lAvBe-gPCF9OCpIl-7" source="AlX_lAvBe-gPCF9OCpIl-1" target="AlX_lAvBe-gPCF9OCpIl-8" edge="1">
          <mxGeometry relative="1" as="geometry" />
        </mxCell>
        <mxCell id="AlX_lAvBe-gPCF9OCpIl-18" style="rounded=0;orthogonalLoop=1;jettySize=auto;html=1;endArrow=none;endFill=0;" parent="AlX_lAvBe-gPCF9OCpIl-7" source="AlX_lAvBe-gPCF9OCpIl-1" target="AlX_lAvBe-gPCF9OCpIl-17" edge="1">
          <mxGeometry relative="1" as="geometry" />
        </mxCell>
        <mxCell id="AlX_lAvBe-gPCF9OCpIl-1" value="Professor" style="shape=umlActor;verticalLabelPosition=bottom;verticalAlign=top;html=1;outlineConnect=0;" parent="AlX_lAvBe-gPCF9OCpIl-7" vertex="1">
          <mxGeometry x="740" y="295" width="30" height="60" as="geometry" />
        </mxCell>
        <mxCell id="AlX_lAvBe-gPCF9OCpIl-32" style="rounded=0;orthogonalLoop=1;jettySize=auto;html=1;entryX=0;entryY=0.5;entryDx=0;entryDy=0;endArrow=none;endFill=0;" parent="AlX_lAvBe-gPCF9OCpIl-7" source="AlX_lAvBe-gPCF9OCpIl-3" target="AlX_lAvBe-gPCF9OCpIl-31" edge="1">
          <mxGeometry relative="1" as="geometry" />
        </mxCell>
        <mxCell id="AlX_lAvBe-gPCF9OCpIl-3" value="Instituição de ensino" style="shape=umlActor;verticalLabelPosition=bottom;verticalAlign=top;html=1;outlineConnect=0;" parent="AlX_lAvBe-gPCF9OCpIl-7" vertex="1">
          <mxGeometry x="750" y="105" width="30" height="60" as="geometry" />
        </mxCell>
        <mxCell id="AlX_lAvBe-gPCF9OCpIl-13" value="Cadastrar no sistema" style="ellipse;whiteSpace=wrap;html=1;" parent="AlX_lAvBe-gPCF9OCpIl-7" vertex="1">
          <mxGeometry x="340" y="160" width="140" height="70" as="geometry" />
        </mxCell>
        <mxCell id="AlX_lAvBe-gPCF9OCpIl-16" value="Notificar aluno por e-mail" style="ellipse;whiteSpace=wrap;html=1;" parent="AlX_lAvBe-gPCF9OCpIl-7" vertex="1">
          <mxGeometry x="420" y="485" width="140" height="70" as="geometry" />
        </mxCell>
        <mxCell id="AlX_lAvBe-gPCF9OCpIl-17" value="Transferir moedas" style="ellipse;whiteSpace=wrap;html=1;" parent="AlX_lAvBe-gPCF9OCpIl-7" vertex="1">
          <mxGeometry x="420" y="345" width="140" height="70" as="geometry" />
        </mxCell>
        <mxCell id="AlX_lAvBe-gPCF9OCpIl-23" value="Consultar extrato de transações" style="ellipse;whiteSpace=wrap;html=1;" parent="AlX_lAvBe-gPCF9OCpIl-7" vertex="1">
          <mxGeometry x="270" y="355" width="140" height="70" as="geometry" />
        </mxCell>
        <mxCell id="AlX_lAvBe-gPCF9OCpIl-52" style="rounded=0;orthogonalLoop=1;jettySize=auto;html=1;entryX=0.5;entryY=0;entryDx=0;entryDy=0;fontFamily=Helvetica;fontSize=12;fontColor=default;endArrow=open;endFill=0;dashed=1;dashPattern=8 8;" parent="AlX_lAvBe-gPCF9OCpIl-7" source="AlX_lAvBe-gPCF9OCpIl-26" target="AlX_lAvBe-gPCF9OCpIl-51" edge="1">
          <mxGeometry relative="1" as="geometry" />
        </mxCell>
        <mxCell id="AlX_lAvBe-gPCF9OCpIl-26" value="Resgatar vantagens" style="ellipse;whiteSpace=wrap;html=1;" parent="AlX_lAvBe-gPCF9OCpIl-7" vertex="1">
          <mxGeometry x="190" y="475" width="140" height="70" as="geometry" />
        </mxCell>
        <mxCell id="AlX_lAvBe-gPCF9OCpIl-31" value="Solicitar cadastro no sistema" style="ellipse;whiteSpace=wrap;html=1;" parent="AlX_lAvBe-gPCF9OCpIl-7" vertex="1">
          <mxGeometry x="530" y="95" width="140" height="70" as="geometry" />
        </mxCell>
        <mxCell id="AlX_lAvBe-gPCF9OCpIl-33" value="Enviar lista de professores para cadastro" style="ellipse;whiteSpace=wrap;html=1;" parent="AlX_lAvBe-gPCF9OCpIl-7" vertex="1">
          <mxGeometry x="530" y="210" width="140" height="70" as="geometry" />
        </mxCell>
        <mxCell id="AlX_lAvBe-gPCF9OCpIl-39" value="Cadastrar vantagens" style="ellipse;whiteSpace=wrap;html=1;" parent="AlX_lAvBe-gPCF9OCpIl-7" vertex="1">
          <mxGeometry x="200" y="105" width="140" height="70" as="geometry" />
        </mxCell>
        <mxCell id="AlX_lAvBe-gPCF9OCpIl-19" style="rounded=0;orthogonalLoop=1;jettySize=auto;html=1;endArrow=open;endFill=0;dashed=1;dashPattern=8 8;" parent="AlX_lAvBe-gPCF9OCpIl-7" source="AlX_lAvBe-gPCF9OCpIl-17" target="AlX_lAvBe-gPCF9OCpIl-16" edge="1">
          <mxGeometry relative="1" as="geometry" />
        </mxCell>
        <mxCell id="AlX_lAvBe-gPCF9OCpIl-20" value="&amp;lt;&amp;lt;include&amp;gt;&amp;gt;" style="text;html=1;strokeColor=none;fillColor=none;align=center;verticalAlign=middle;whiteSpace=wrap;rounded=0;" parent="AlX_lAvBe-gPCF9OCpIl-7" vertex="1">
          <mxGeometry x="500" y="435" width="60" height="30" as="geometry" />
        </mxCell>
        <mxCell id="AlX_lAvBe-gPCF9OCpIl-35" value="" style="group" parent="AlX_lAvBe-gPCF9OCpIl-7" vertex="1" connectable="0">
          <mxGeometry x="610" y="175" width="60" height="30" as="geometry" />
        </mxCell>
        <mxCell id="AlX_lAvBe-gPCF9OCpIl-36" style="rounded=0;orthogonalLoop=1;jettySize=auto;html=1;endArrow=open;endFill=0;dashed=1;dashPattern=8 8;" parent="AlX_lAvBe-gPCF9OCpIl-35" edge="1">
          <mxGeometry relative="1" as="geometry" />
        </mxCell>
        <mxCell id="AlX_lAvBe-gPCF9OCpIl-37" value="&amp;lt;&amp;lt;include&amp;gt;&amp;gt;" style="text;html=1;strokeColor=none;fillColor=none;align=center;verticalAlign=middle;whiteSpace=wrap;rounded=0;" parent="AlX_lAvBe-gPCF9OCpIl-35" vertex="1">
          <mxGeometry width="60" height="30" as="geometry" />
        </mxCell>
        <mxCell id="AlX_lAvBe-gPCF9OCpIl-51" value="Enviar e-mails com código do cupom" style="ellipse;whiteSpace=wrap;html=1;" parent="AlX_lAvBe-gPCF9OCpIl-7" vertex="1">
          <mxGeometry x="450" y="615" width="140" height="70" as="geometry" />
        </mxCell>
        <mxCell id="AlX_lAvBe-gPCF9OCpIl-53" value="&amp;lt;&amp;lt;include&amp;gt;&amp;gt;" style="text;html=1;strokeColor=none;fillColor=none;align=center;verticalAlign=middle;whiteSpace=wrap;rounded=0;" parent="AlX_lAvBe-gPCF9OCpIl-7" vertex="1">
          <mxGeometry x="360" y="535" width="60" height="30" as="geometry" />
        </mxCell>
        <mxCell id="AlX_lAvBe-gPCF9OCpIl-56" value="" style="rounded=0;whiteSpace=wrap;html=1;pointerEvents=0;strokeColor=default;fontFamily=Helvetica;fontSize=12;fontColor=default;fillColor=none;" parent="AlX_lAvBe-gPCF9OCpIl-7" vertex="1">
          <mxGeometry x="150" y="40" width="550" height="690" as="geometry" />
        </mxCell>
        <mxCell id="AlX_lAvBe-gPCF9OCpIl-57" value="&lt;b&gt;Mérito System&lt;/b&gt;" style="text;html=1;strokeColor=none;fillColor=none;align=center;verticalAlign=middle;whiteSpace=wrap;rounded=0;fontSize=12;fontFamily=Helvetica;fontColor=default;" parent="AlX_lAvBe-gPCF9OCpIl-7" vertex="1">
          <mxGeometry x="354" y="50" width="126" height="30" as="geometry" />
        </mxCell>
        <mxCell id="AlX_lAvBe-gPCF9OCpIl-34" style="rounded=0;orthogonalLoop=1;jettySize=auto;html=1;endArrow=open;endFill=0;dashed=1;dashPattern=8 8;" parent="1" source="AlX_lAvBe-gPCF9OCpIl-31" target="AlX_lAvBe-gPCF9OCpIl-33" edge="1">
          <mxGeometry relative="1" as="geometry" />
        </mxCell>
      </root>
    </mxGraphModel>
  </diagram>
</mxfile>
